<svg width="2090" height="485" viewBox="0 0 2090 485" fill="none" xmlns="http://www.w3.org/2000/svg">
<path d="M217.96 295.308C217.96 340.761 181.095 377.608 135.619 377.608C90.144 377.608 53.279 340.761 53.279 295.308C53.279 249.856 90.144 213.009 135.619 213.009C181.095 213.009 217.96 249.856 217.96 295.308Z" fill="#050D21"/>
<path d="M276.082 145.234C276.082 182.665 245.723 213.009 208.272 213.009C170.822 213.009 140.463 182.665 140.463 145.234C140.463 107.802 170.822 77.458 208.272 77.458C245.723 77.458 276.082 107.802 276.082 145.234Z" fill="#FFD700"/>
<path d="M426.232 309.832C426.232 363.305 382.861 406.654 329.361 406.654C275.861 406.654 232.49 363.305 232.49 309.832C232.49 256.358 275.861 213.009 329.361 213.009C382.861 213.009 426.232 256.358 426.232 309.832Z" fill="#084FD4"/>
<path d="M527.985 341.202C519.926 341.202 512.951 338.724 507.061 333.766C501.171 328.654 498.227 320.831 498.227 310.297C498.227 301.157 500.551 294.03 505.201 288.918C509.851 283.806 516.206 280.243 524.265 278.229C532.48 276.215 541.935 275.208 552.629 275.208H560.999V272.884C560.999 270.251 560.456 267.617 559.371 264.984C558.286 262.35 556.504 260.181 554.024 258.477C551.544 256.618 548.057 255.689 543.562 255.689C537.207 255.689 532.48 256.308 529.38 257.548C526.28 258.787 523.878 260.104 522.173 261.498C520.468 262.737 518.531 263.357 516.361 263.357C512.486 263.357 509.464 261.421 507.294 257.548C505.279 253.675 504.271 249.647 504.271 245.464C504.271 241.746 506.364 238.493 510.549 235.705C514.888 232.916 520.081 230.747 526.125 229.198C532.325 227.649 538.292 226.874 544.027 226.874C556.737 226.874 566.966 229.043 574.716 233.381C582.466 237.718 588.123 243.373 591.688 250.344C595.253 257.16 597.035 264.519 597.035 272.42V327.725C597.035 330.823 595.33 333.457 591.92 335.625C588.665 337.794 584.48 338.879 579.366 338.879C574.871 338.879 571.073 337.794 567.974 335.625C564.874 333.457 563.324 330.823 563.324 327.725V322.612C559.139 327.415 554.257 331.752 548.677 335.625C543.097 339.343 536.2 341.202 527.985 341.202ZM543.562 314.944C546.042 314.944 548.599 314.015 551.234 312.156C553.869 310.142 556.117 307.508 557.977 304.255C559.991 301.002 560.999 297.439 560.999 293.566V292.636H560.069C555.729 292.636 551.544 292.946 547.514 293.566C543.64 294.03 540.462 295.192 537.982 297.051C535.657 298.755 534.495 301.466 534.495 305.184C534.495 308.593 535.347 311.071 537.052 312.62C538.757 314.169 540.927 314.944 543.562 314.944Z" fill="#050D21"/>
<path d="M665.939 341.202C653.695 341.202 643.62 339.033 635.715 334.696C627.966 330.358 622.231 324.471 618.511 317.035C614.946 309.599 613.164 301.234 613.164 291.939V276.138C613.164 266.843 614.946 258.477 618.511 251.041C622.231 243.605 627.966 237.718 635.715 233.381C643.465 229.043 653.385 226.874 665.474 226.874C673.069 226.874 679.811 227.804 685.701 229.663C691.591 231.367 696.24 233.691 699.65 236.634C703.06 239.577 704.765 242.753 704.765 246.161C704.765 248.33 704.145 250.809 702.905 253.597C701.82 256.386 700.193 258.787 698.023 260.801C696.008 262.815 693.606 263.822 690.816 263.822C688.956 263.822 687.096 263.357 685.236 262.428C683.531 261.498 681.361 260.569 678.726 259.639C676.091 258.71 672.681 258.245 668.497 258.245C661.522 258.245 656.562 259.794 653.617 262.892C650.672 265.991 649.2 270.406 649.2 276.138V291.939C649.2 297.671 650.672 302.086 653.617 305.184C656.562 308.283 661.599 309.832 668.729 309.832C672.914 309.832 676.246 309.29 678.726 308.205C681.206 307.121 683.298 306.114 685.003 305.184C686.863 304.1 688.801 303.558 690.816 303.558C694.071 303.558 696.86 304.487 699.185 306.346C701.51 308.205 703.215 310.529 704.3 313.317C705.54 315.951 706.16 318.43 706.16 320.753C706.16 324.162 704.378 327.492 700.813 330.745C697.248 333.844 692.443 336.4 686.398 338.414C680.354 340.273 673.534 341.202 665.939 341.202Z" fill="#050D21"/>
<path d="M767.881 341.202C755.636 341.202 745.562 339.033 737.657 334.696C729.907 330.358 724.173 324.471 720.453 317.035C716.888 309.599 715.105 301.234 715.105 291.939V276.138C715.105 266.843 716.888 258.477 720.453 251.041C724.173 243.605 729.907 237.718 737.657 233.381C745.407 229.043 755.326 226.874 767.416 226.874C775.01 226.874 781.753 227.804 787.642 229.663C793.532 231.367 798.182 233.691 801.592 236.634C805.002 239.577 806.707 242.753 806.707 246.161C806.707 248.33 806.087 250.809 804.847 253.597C803.762 256.386 802.134 258.787 799.964 260.801C797.949 262.815 795.547 263.822 792.757 263.822C790.897 263.822 789.037 263.357 787.177 262.428C785.472 261.498 783.303 260.569 780.668 259.639C778.033 258.71 774.623 258.245 770.438 258.245C763.463 258.245 758.504 259.794 755.559 262.892C752.614 265.991 751.141 270.406 751.141 276.138V291.939C751.141 297.671 752.614 302.086 755.559 305.184C758.504 308.283 763.541 309.832 770.671 309.832C774.855 309.832 778.188 309.29 780.668 308.205C783.148 307.121 785.24 306.114 786.945 305.184C788.805 304.1 790.742 303.558 792.757 303.558C796.012 303.558 798.802 304.487 801.127 306.346C803.452 308.205 805.157 310.529 806.242 313.317C807.482 315.951 808.102 318.43 808.102 320.753C808.102 324.162 806.319 327.492 802.754 330.745C799.189 333.844 794.385 336.4 788.34 338.414C782.295 340.273 775.475 341.202 767.881 341.202Z" fill="#050D21"/>
<path d="M875.635 341.202C864.165 341.202 854.013 339.188 845.178 335.161C836.344 330.978 829.369 325.168 824.254 317.733C819.294 310.297 816.814 301.699 816.814 291.939V274.976C816.814 266.3 819.217 258.322 824.022 251.041C828.826 243.76 835.259 237.951 843.318 233.613C851.378 229.121 860.368 226.874 870.287 226.874C879.277 226.874 887.491 228.733 894.931 232.451C902.526 236.169 908.648 241.359 913.298 248.02C917.948 254.527 920.273 262.195 920.273 271.025C920.273 277.997 919.11 283.031 916.785 286.13C914.615 289.073 911.748 290.932 908.183 291.707C904.773 292.326 901.286 292.636 897.721 292.636H852.85V294.03C852.85 299.762 855.02 304.41 859.36 307.973C863.7 311.381 869.435 313.085 876.564 313.085C881.369 313.085 885.477 312.388 888.886 310.994C892.296 309.445 895.319 307.973 897.954 306.579C900.588 305.184 903.146 304.487 905.626 304.487C908.416 304.487 910.818 305.417 912.833 307.276C914.848 309.135 916.32 311.304 917.25 313.782C918.335 316.261 918.878 318.43 918.878 320.289C918.878 323.232 917.095 326.33 913.53 329.584C909.966 332.837 904.928 335.625 898.419 337.949C892.064 340.118 884.469 341.202 875.635 341.202ZM852.85 272.42H881.679C883.384 272.42 884.624 272.032 885.399 271.258C886.174 270.483 886.562 269.011 886.562 266.843C886.562 263.744 885.709 261.188 884.004 259.174C882.454 257.006 880.362 255.456 877.727 254.527C875.247 253.442 872.535 252.9 869.59 252.9C866.8 252.9 864.087 253.442 861.453 254.527C858.973 255.456 856.88 257.006 855.175 259.174C853.625 261.188 852.85 263.744 852.85 266.843V272.42Z" fill="#050D21"/>
<path d="M974.93 341.202C966.87 341.202 959.43 340.195 952.611 338.181C945.946 336.168 940.599 333.534 936.569 330.281C932.694 327.027 930.756 323.542 930.756 319.824C930.756 317.965 931.221 315.796 932.151 313.317C933.236 310.839 934.631 308.67 936.336 306.811C938.196 304.952 940.289 304.022 942.613 304.022C945.093 304.022 947.573 304.952 950.053 306.811C952.533 308.515 955.555 310.219 959.12 311.923C962.84 313.627 967.8 314.479 974 314.479C980.199 314.479 984.152 313.627 985.857 311.923C987.562 310.064 988.414 308.36 988.414 306.811C988.414 304.177 987.097 302.163 984.462 300.769C981.827 299.22 978.417 297.981 974.232 297.051C970.202 295.967 965.862 294.805 961.213 293.566C956.563 292.171 952.146 290.312 947.961 287.989C943.931 285.665 940.599 282.489 937.964 278.461C935.329 274.434 934.011 269.166 934.011 262.66C934.011 256.928 935.329 251.351 937.964 245.929C940.754 240.352 945.326 235.782 951.681 232.219C958.035 228.656 966.715 226.874 977.719 226.874C984.539 226.874 990.894 227.571 996.784 228.966C1002.83 230.36 1007.71 232.374 1011.43 235.007C1015.31 237.486 1017.24 240.352 1017.24 243.605C1017.24 245.154 1016.7 247.323 1015.62 250.112C1014.69 252.745 1013.21 255.146 1011.2 257.315C1009.34 259.484 1007.01 260.569 1004.22 260.569C1002.21 260.569 999.961 260.026 997.481 258.942C995.001 257.703 992.211 256.541 989.112 255.456C986.012 254.217 982.369 253.597 978.185 253.597C975.085 253.597 972.527 253.985 970.512 254.759C968.652 255.534 967.257 256.463 966.328 257.548C965.398 258.632 964.932 259.794 964.932 261.033C964.932 263.202 966.25 264.906 968.885 266.146C971.52 267.23 974.93 268.314 979.114 269.399C983.299 270.328 987.717 271.49 992.366 272.884C997.016 274.124 1001.43 276.06 1005.62 278.694C1009.8 281.172 1013.21 284.581 1015.85 288.918C1018.48 293.101 1019.8 298.6 1019.8 305.417C1019.8 316.261 1015.93 324.936 1008.18 331.443C1000.58 337.949 989.499 341.202 974.93 341.202Z" fill="#050D21"/>
<path d="M1074.6 341.202C1066.54 341.202 1059.1 340.195 1052.28 338.181C1045.62 336.168 1040.27 333.534 1036.24 330.281C1032.36 327.027 1030.43 323.542 1030.43 319.824C1030.43 317.965 1030.89 315.796 1031.82 313.317C1032.91 310.839 1034.3 308.67 1036.01 306.811C1037.87 304.952 1039.96 304.022 1042.28 304.022C1044.76 304.022 1047.24 304.952 1049.72 306.811C1052.2 308.515 1055.23 310.219 1058.79 311.923C1062.51 313.627 1067.47 314.479 1073.67 314.479C1079.87 314.479 1083.82 313.627 1085.53 311.923C1087.23 310.064 1088.09 308.36 1088.09 306.811C1088.09 304.177 1086.77 302.163 1084.13 300.769C1081.5 299.22 1078.09 297.981 1073.9 297.051C1069.87 295.967 1065.53 294.805 1060.88 293.566C1056.23 292.171 1051.82 290.312 1047.63 287.989C1043.6 285.665 1040.27 282.489 1037.63 278.461C1035 274.434 1033.68 269.166 1033.68 262.66C1033.68 256.928 1035 251.351 1037.63 245.929C1040.42 240.352 1045 235.782 1051.35 232.219C1057.71 228.656 1066.39 226.874 1077.39 226.874C1084.21 226.874 1090.57 227.571 1096.45 228.966C1102.5 230.36 1107.38 232.374 1111.1 235.007C1114.98 237.486 1116.91 240.352 1116.91 243.605C1116.91 245.154 1116.37 247.323 1115.29 250.112C1114.36 252.745 1112.88 255.146 1110.87 257.315C1109.01 259.484 1106.68 260.569 1103.89 260.569C1101.88 260.569 1099.63 260.026 1097.15 258.942C1094.67 257.703 1091.88 256.541 1088.78 255.456C1085.68 254.217 1082.04 253.597 1077.86 253.597C1074.76 253.597 1072.2 253.985 1070.18 254.759C1068.32 255.534 1066.93 256.463 1066 257.548C1065.07 258.632 1064.6 259.794 1064.6 261.033C1064.6 263.202 1065.92 264.906 1068.56 266.146C1071.19 267.23 1074.6 268.314 1078.79 269.399C1082.97 270.328 1087.39 271.49 1092.04 272.884C1096.69 274.124 1101.1 276.06 1105.29 278.694C1109.47 281.172 1112.88 284.581 1115.52 288.918C1118.15 293.101 1119.47 298.6 1119.47 305.417C1119.47 316.261 1115.6 324.936 1107.85 331.443C1100.25 337.949 1089.17 341.202 1074.6 341.202Z" fill="#050D21"/>
<path d="M1153.58 206.89C1148.31 206.89 1143.82 205.186 1140.1 201.778C1136.38 198.37 1134.52 194.497 1134.52 190.159C1134.52 185.667 1136.38 181.794 1140.1 178.541C1143.82 175.287 1148.31 173.661 1153.58 173.661C1158.85 173.661 1163.27 175.287 1166.83 178.541C1170.55 181.794 1172.41 185.667 1172.41 190.159C1172.41 194.497 1170.55 198.37 1166.83 201.778C1163.27 205.186 1158.85 206.89 1153.58 206.89ZM1153.58 338.879C1148.31 338.879 1143.97 337.717 1140.56 335.393C1137.31 333.069 1135.68 330.513 1135.68 327.725V239.19C1135.68 235.937 1137.31 233.303 1140.56 231.289C1143.97 229.276 1148.31 228.269 1153.58 228.269C1158.54 228.269 1162.8 229.276 1166.37 231.289C1169.93 233.303 1171.71 235.937 1171.71 239.19V327.725C1171.71 330.513 1169.93 333.069 1166.37 335.393C1162.8 337.717 1158.54 338.879 1153.58 338.879Z" fill="#050D21"/>
<path d="M1258.93 341.202C1251.49 341.202 1244.75 339.343 1238.7 335.625C1232.81 331.752 1228.71 327.415 1226.38 322.612V327.725C1226.38 330.513 1224.83 333.069 1221.73 335.393C1218.63 337.717 1214.84 338.879 1210.34 338.879C1205.23 338.879 1200.96 337.717 1197.55 335.393C1194.3 333.069 1192.67 330.513 1192.67 327.725V175.984C1192.67 172.731 1194.3 170.098 1197.55 168.084C1200.96 166.07 1205.23 165.063 1210.34 165.063C1215.46 165.063 1219.8 166.07 1223.36 168.084C1226.92 170.098 1228.71 172.731 1228.71 175.984V244.535C1231.19 240.042 1234.91 236.014 1239.87 232.451C1244.98 228.733 1251.1 226.874 1258.23 226.874C1265.83 226.874 1272.73 229.121 1278.93 233.613C1285.12 237.951 1290.08 243.838 1293.8 251.274C1297.52 258.555 1299.38 266.688 1299.38 275.673V291.939C1299.38 300.459 1297.52 308.515 1293.8 316.106C1290.08 323.542 1285.12 329.584 1278.93 334.231C1272.88 338.879 1266.22 341.202 1258.93 341.202ZM1246.61 309.832C1249.71 309.832 1252.5 308.98 1254.98 307.276C1257.61 305.572 1259.63 303.325 1261.02 300.537C1262.57 297.748 1263.35 294.882 1263.35 291.939V275.673C1263.35 272.729 1262.57 269.941 1261.02 267.307C1259.63 264.674 1257.61 262.505 1254.98 260.801C1252.5 259.097 1249.63 258.245 1246.38 258.245C1243.59 258.245 1240.8 258.942 1238.01 260.336C1235.37 261.73 1233.12 263.744 1231.26 266.378C1229.56 268.857 1228.71 271.955 1228.71 275.673V294.96C1228.71 296.199 1229.48 298.058 1231.03 300.537C1232.74 302.861 1234.91 305.029 1237.54 307.043C1240.33 308.902 1243.35 309.832 1246.61 309.832Z" fill="#050D21"/>
<path d="M1334.3 206.89C1329.04 206.89 1324.54 205.186 1320.82 201.778C1317.1 198.37 1315.24 194.497 1315.24 190.159C1315.24 185.667 1317.1 181.794 1320.82 178.541C1324.54 175.287 1329.04 173.661 1334.3 173.661C1339.57 173.661 1343.99 175.287 1347.56 178.541C1351.28 181.794 1353.14 185.667 1353.14 190.159C1353.14 194.497 1351.28 198.37 1347.56 201.778C1343.99 205.186 1339.57 206.89 1334.3 206.89ZM1334.3 338.879C1329.04 338.879 1324.7 337.717 1321.29 335.393C1318.03 333.069 1316.4 330.513 1316.4 327.725V239.19C1316.4 235.937 1318.03 233.303 1321.29 231.289C1324.7 229.276 1329.04 228.269 1334.3 228.269C1339.26 228.269 1343.53 229.276 1347.09 231.289C1350.66 233.303 1352.44 235.937 1352.44 239.19V327.725C1352.44 330.513 1350.66 333.069 1347.09 335.393C1343.53 337.717 1339.26 338.879 1334.3 338.879Z" fill="#050D21"/>
<path d="M1393.16 338.879C1387.89 338.879 1383.55 337.717 1380.14 335.393C1376.88 333.069 1375.26 330.513 1375.26 327.725V175.984C1375.26 172.731 1376.88 170.098 1380.14 168.084C1383.55 166.07 1387.89 165.063 1393.16 165.063C1398.12 165.063 1402.38 166.07 1405.94 168.084C1409.51 170.098 1411.29 172.731 1411.29 175.984V327.725C1411.29 330.513 1409.51 333.069 1405.94 335.393C1402.38 337.717 1398.12 338.879 1393.16 338.879Z" fill="#050D21"/>
<path d="M1452.14 206.89C1446.87 206.89 1442.37 205.186 1438.65 201.778C1434.94 198.37 1433.08 194.497 1433.08 190.159C1433.08 185.667 1434.94 181.794 1438.65 178.541C1442.37 175.287 1446.87 173.661 1452.14 173.661C1457.41 173.661 1461.83 175.287 1465.39 178.541C1469.11 181.794 1470.97 185.667 1470.97 190.159C1470.97 194.497 1469.11 198.37 1465.39 201.778C1461.83 205.186 1457.41 206.89 1452.14 206.89ZM1452.14 338.879C1446.87 338.879 1442.53 337.717 1439.12 335.393C1435.87 333.069 1434.24 330.513 1434.24 327.725V239.19C1434.24 235.937 1435.87 233.303 1439.12 231.289C1442.53 229.276 1446.87 228.269 1452.14 228.269C1457.1 228.269 1461.36 229.276 1464.93 231.289C1468.49 233.303 1470.27 235.937 1470.27 239.19V327.725C1470.27 330.513 1468.49 333.069 1464.93 335.393C1461.36 337.717 1457.1 338.879 1452.14 338.879Z" fill="#050D21"/>
<path d="M1536.1 338.879C1521.38 338.879 1510.06 335.78 1502.16 329.584C1494.41 323.232 1490.53 313.24 1490.53 299.607V191.089C1490.53 187.836 1492.47 185.202 1496.35 183.188C1500.22 181.174 1504.25 180.167 1508.43 180.167C1512.93 180.167 1517.04 181.174 1520.76 183.188C1524.63 185.202 1526.57 187.836 1526.57 191.089V228.269H1552.84C1555.79 228.269 1557.96 229.663 1559.35 232.451C1560.9 235.085 1561.68 237.951 1561.68 241.049C1561.68 244.302 1560.9 247.246 1559.35 249.879C1557.96 252.513 1555.79 253.83 1552.84 253.83H1526.57V299.607C1526.57 303.016 1527.27 305.417 1528.66 306.811C1530.06 308.05 1532.54 308.67 1536.1 308.67H1546.1C1551.37 308.67 1555.24 310.297 1557.72 313.55C1560.2 316.648 1561.44 320.056 1561.44 323.774C1561.44 327.647 1560.2 331.133 1557.72 334.231C1555.24 337.329 1551.37 338.879 1546.1 338.879H1536.1Z" fill="#050D21"/>
<path d="M1581.96 389.304C1577.31 389.304 1573.36 388.452 1570.1 386.748C1567 385.044 1565.45 380.783 1565.45 373.967C1565.45 369.939 1566.07 366.454 1567.31 363.51C1568.71 360.567 1571.03 359.095 1574.29 359.095C1576.46 359.095 1579.33 358.863 1582.89 358.398C1586.46 358.088 1590.1 357.004 1593.82 355.145C1597.69 353.441 1600.87 350.497 1603.35 346.315C1605.99 342.287 1607.3 336.632 1607.3 329.351L1566.62 248.485C1565.84 246.936 1565.45 245.387 1565.45 243.838C1565.45 240.739 1566.85 237.873 1569.64 235.24C1572.43 232.606 1575.68 230.515 1579.4 228.966C1583.28 227.417 1586.77 226.642 1589.87 226.642C1592.04 226.642 1594.05 227.107 1595.91 228.036C1597.77 228.811 1599.09 230.283 1599.86 232.451L1626.13 295.425L1645.43 232.451C1646.21 230.283 1647.45 228.811 1649.15 228.036C1651.01 227.107 1652.87 226.642 1654.73 226.642C1657.52 226.642 1660.85 227.494 1664.73 229.198C1668.76 230.747 1672.25 232.839 1675.19 235.472C1678.14 238.106 1679.61 241.127 1679.61 244.535C1679.61 246.084 1679.3 247.401 1678.68 248.485L1645.66 330.745C1642.72 338.027 1639.93 345.153 1637.29 352.124C1634.66 359.095 1631.25 365.369 1627.06 370.946C1623.03 376.523 1617.46 380.938 1610.33 384.191C1603.2 387.6 1593.74 389.304 1581.96 389.304Z" fill="#050D21"/>
<path d="M1708.92 338.879C1703.96 338.879 1699.78 337.872 1696.37 335.858C1692.96 333.844 1691.25 331.21 1691.25 327.957V218.741C1691.25 208.827 1693.73 199.842 1698.69 191.786C1703.65 183.575 1710.71 177.069 1719.85 172.266C1728.99 167.464 1739.84 165.063 1752.4 165.063C1759.22 165.063 1765.81 165.837 1772.16 167.387C1778.52 168.781 1783.71 170.795 1787.74 173.428C1791.77 175.907 1793.78 178.928 1793.78 182.491C1793.78 183.885 1793.32 186.286 1792.39 189.695C1791.61 193.103 1790.29 196.278 1788.43 199.222C1786.57 202.165 1784.17 203.637 1781.23 203.637C1779.06 203.637 1776.89 202.94 1774.72 201.546C1772.7 200.151 1769.99 198.757 1766.58 197.363C1763.33 195.969 1758.6 195.271 1752.4 195.271C1748.99 195.271 1745.73 195.659 1742.63 196.433C1739.69 197.053 1737.05 198.215 1734.73 199.919C1732.4 201.468 1730.54 203.637 1729.15 206.425C1727.91 209.214 1727.29 212.777 1727.29 217.115V228.269H1748.68C1751.62 228.269 1753.79 229.663 1755.19 232.451C1756.74 235.085 1757.51 237.951 1757.51 241.049C1757.51 244.302 1756.74 247.246 1755.19 249.879C1753.79 252.513 1751.62 253.83 1748.68 253.83H1727.29V327.957C1727.29 331.21 1725.43 333.844 1721.71 335.858C1718.15 337.872 1713.88 338.879 1708.92 338.879ZM1789.13 338.879C1784.02 338.879 1779.76 337.717 1776.35 335.393C1773.09 333.069 1771.46 330.513 1771.46 327.725V239.19C1771.46 235.937 1773.09 233.303 1776.35 231.289C1779.76 229.276 1784.02 228.269 1789.13 228.269C1794.25 228.269 1798.59 229.276 1802.15 231.289C1805.72 233.303 1807.5 235.937 1807.5 239.19V327.725C1807.5 330.513 1805.72 333.069 1802.15 335.393C1798.59 337.717 1794.25 338.879 1789.13 338.879Z" fill="#084FD4"/>
<path d="M1845.82 338.879C1840.71 338.879 1836.45 337.717 1833.04 335.393C1829.78 333.069 1828.15 330.513 1828.15 327.725V239.19C1828.15 235.937 1829.78 233.303 1833.04 231.289C1836.45 229.276 1840.71 228.269 1845.82 228.269C1850.32 228.269 1854.12 229.276 1857.22 231.289C1860.32 233.303 1861.87 235.937 1861.87 239.19V247.788C1863.42 244.38 1865.59 241.127 1868.38 238.028C1871.32 234.775 1874.57 232.142 1878.14 230.128C1881.86 227.959 1885.66 226.874 1889.53 226.874H1896.27C1899.68 226.874 1902.63 228.424 1905.11 231.522C1907.74 234.62 1909.06 238.261 1909.06 242.443C1909.06 246.781 1907.74 250.499 1905.11 253.597C1902.63 256.696 1899.68 258.245 1896.27 258.245H1889.53C1885.35 258.245 1881.32 259.717 1877.44 262.66C1873.57 265.448 1870.39 269.399 1867.91 274.511C1865.43 279.623 1864.19 285.742 1864.19 292.869V327.725C1864.19 330.513 1862.41 333.069 1858.84 335.393C1855.28 337.717 1850.94 338.879 1845.82 338.879Z" fill="#084FD4"/>
<path d="M1958.25 341.202C1950.19 341.202 1942.75 340.195 1935.93 338.181C1929.26 336.168 1923.91 333.534 1919.88 330.281C1916.01 327.027 1914.07 323.542 1914.07 319.824C1914.07 317.965 1914.54 315.796 1915.47 313.317C1916.55 310.839 1917.95 308.67 1919.65 306.811C1921.51 304.952 1923.6 304.022 1925.93 304.022C1928.41 304.022 1930.89 304.952 1933.37 306.811C1935.85 308.515 1938.87 310.219 1942.44 311.923C1946.16 313.627 1951.12 314.479 1957.32 314.479C1963.52 314.479 1967.47 313.627 1969.17 311.923C1970.88 310.064 1971.73 308.36 1971.73 306.811C1971.73 304.177 1970.41 302.163 1967.78 300.769C1965.14 299.22 1961.73 297.981 1957.55 297.051C1953.52 295.967 1949.18 294.805 1944.53 293.566C1939.88 292.171 1935.46 290.312 1931.28 287.989C1927.25 285.665 1923.91 282.489 1921.28 278.461C1918.64 274.434 1917.33 269.166 1917.33 262.66C1917.33 256.928 1918.64 251.351 1921.28 245.929C1924.07 240.352 1928.64 235.782 1935 232.219C1941.35 228.656 1950.03 226.874 1961.04 226.874C1967.85 226.874 1974.21 227.571 1980.1 228.966C1986.14 230.36 1991.03 232.374 1994.75 235.007C1998.62 237.486 2000.56 240.352 2000.56 243.605C2000.56 245.154 2000.02 247.323 1998.93 250.112C1998 252.745 1996.53 255.146 1994.51 257.315C1992.65 259.484 1990.33 260.569 1987.54 260.569C1985.52 260.569 1983.28 260.026 1980.8 258.942C1978.32 257.703 1975.53 256.541 1972.43 255.456C1969.33 254.217 1965.68 253.597 1961.5 253.597C1958.4 253.597 1955.84 253.985 1953.83 254.759C1951.97 255.534 1950.57 256.463 1949.64 257.548C1948.71 258.632 1948.25 259.794 1948.25 261.033C1948.25 263.202 1949.57 264.906 1952.2 266.146C1954.84 267.23 1958.25 268.314 1962.43 269.399C1966.61 270.328 1971.03 271.49 1975.68 272.884C1980.33 274.124 1984.75 276.06 1988.93 278.694C1993.12 281.172 1996.53 284.581 1999.16 288.918C2001.8 293.101 2003.12 298.6 2003.12 305.417C2003.12 316.261 1999.24 324.936 1991.49 331.443C1983.9 337.949 1972.81 341.202 1958.25 341.202Z" fill="#084FD4"/>
<path d="M2064.43 338.879C2049.7 338.879 2038.39 335.78 2030.48 329.584C2022.73 323.232 2018.86 313.24 2018.86 299.607V191.089C2018.86 187.836 2020.8 185.202 2024.67 183.188C2028.55 181.174 2032.57 180.167 2036.76 180.167C2041.25 180.167 2045.36 181.174 2049.08 183.188C2052.96 185.202 2054.89 187.836 2054.89 191.089V228.269H2081.17C2084.11 228.269 2086.28 229.663 2087.68 232.451C2089.23 235.085 2090 237.951 2090 241.049C2090 244.302 2089.23 247.246 2087.68 249.879C2086.28 252.513 2084.11 253.83 2081.17 253.83H2054.89V299.607C2054.89 303.016 2055.59 305.417 2056.99 306.811C2058.38 308.05 2060.86 308.67 2064.43 308.67H2074.42C2079.69 308.67 2083.57 310.297 2086.05 313.55C2088.53 316.648 2089.77 320.056 2089.77 323.774C2089.77 327.647 2088.53 331.133 2086.05 334.231C2083.57 337.329 2079.69 338.879 2074.42 338.879H2064.43Z" fill="#084FD4"/>
</svg>
